# Blender v2.77 (sub 0) OBJ File: ''
# www.blender.org
mtllib cube2.mtl
o Cube_Cube.001
v 1.000000 -1.000000 1.000000
v -1.000000 -1.000000 -1.000000
v 1.000000 -1.000000 -1.000000
v -1.000000 1.000000 -1.000000
v 0.999999 1.000000 1.000001
v 1.000000 1.000000 -0.999999
v -1.000000 -1.000000 1.000000
v -1.000000 1.000000 1.000000
vt 0.3331 0.6665
vt 0.0002 0.3335
vt 0.0002 0.6665
vt 0.0002 0.0002
vt 0.3331 0.3331
vt 0.0002 0.3331
vt 0.6669 0.0002
vt 0.9998 0.3331
vt 0.6669 0.3331
vt 0.3335 0.0002
vt 0.6665 0.3331
vt 0.3335 0.3331
vt 0.3331 0.6669
vt 0.0002 0.9998
vt 0.3331 0.9998
vt 0.6665 0.6665
vt 0.3335 0.3335
vt 0.3335 0.6665
vt 0.3331 0.3335
vt 0.3331 0.0002
vt 0.9998 0.0002
vt 0.6665 0.0002
vt 0.0002 0.6669
vt 0.6665 0.3335
vn 0.0000 -1.0000 -0.0000
vn -0.0000 1.0000 0.0000
vn 1.0000 0.0000 0.0000
vn -0.0000 -0.0000 1.0000
vn -1.0000 0.0000 0.0000
vn 0.0000 0.0000 -1.0000
usemtl Material.001
s 1
f 1/1/1 2/2/1 3/3/1
f 4/4/2 5/5/2 6/6/2
f 6/7/3 1/8/3 3/9/3
f 5/10/4 7/11/4 1/12/4
f 7/13/5 4/14/5 2/15/5
f 3/16/6 4/17/6 6/18/6
f 1/1/1 7/19/1 2/2/1
f 4/4/2 8/20/2 5/5/2
f 6/7/3 5/21/3 1/8/3
f 5/10/4 8/22/4 7/11/4
f 7/13/5 8/23/5 4/14/5
f 3/16/6 2/24/6 4/17/6
